{
  "source": "C:\\Users\\Peter\\Desktop\\stuff\\MIUN\\quantitative_research\\video_compression\\videos\\BVI-HD\\BVI-HD_CDVL_videos\\ORIG\\KineticFastPainting_1920x1080_60fps.mp4",
  "output": "C:\\Users\\Peter\\Desktop\\stuff\\MIUN\\quantitative_research\\video_compression\\compressed_videos\\BVI-HD\\vp9\\1\\KineticFastPainting_1920x1080_60fps_vp9.webm",
  "codec": "vp9",
  "ok": "Input #0, mov,mp4,m4a,3gp,3g2,mj2, from 'C:\\Users\\Peter\\Desktop\\stuff\\MIUN\\quantitative_research\\video_compression\\videos\\BVI-HD\\BVI-HD_CDVL_videos\\ORIG\\KineticFastPainting_1920x1080_60fps.mp4':\n  Metadata:\n    major_brand     : isom\n    minor_version   : 512\n    compatible_brands: isomiso2avc1mp41\n    encoder         : Lavf54.28.101\n  Duration: 00:00:05.00, start: 0.000000, bitrate: 477980 kb/s\n  Stream #0:0[0x1](und): Video: h264 (High 4:4:4 Predictive) (avc1 / 0x31637661), yuv420p(progressive), 1920x1080, 477974 kb/s, 60 fps, 60 tbr, 60 tbn (default)\n    Metadata:\n      handler_name    : VideoHandler\n      vendor_id       : [0][0][0][0]\n[out#0/webm @ 0000027fb7e40e40] Codec AVOption b:a (set bitrate (in bits/s)) has not been used for any stream. The most likely reason is either wrong type (e.g. a video option with no video streams) or that it is a private option of some decoder which was not actually used for any stream.\nStream mapping:\n  Stream #0:0 -> #0:0 (h264 (native) -> vp9 (libvpx-vp9))\nPress [q] to stop, [?] for help\n[libvpx-vp9 @ 0000027fb8990600] v1.15.2-100-g40561f514\nOutput #0, webm, to 'C:\\Users\\Peter\\Desktop\\stuff\\MIUN\\quantitative_research\\video_compression\\compressed_videos\\BVI-HD\\vp9\\1\\KineticFastPainting_1920x1080_60fps_vp9.webm':\n  Metadata:\n    major_brand     : isom\n    minor_version   : 512\n    compatible_brands: isomiso2avc1mp41\n    encoder         : Lavf62.3.100\n  Stream #0:0(und): Video: vp9, yuv420p(tv, progressive), 1920x1080, q=2-31, 1000 kb/s, 60 fps, 1k tbn (default)\n    Metadata:\n      encoder         : Lavc62.11.100 libvpx-vp9\n      handler_name    : VideoHandler\n      vendor_id       : [0][0][0][0]\n    Side data:\n      cpb: bitrate max/min/avg: 0/0/0 buffer size: 1000000 vbv_delay: N/A\nframe=    0 fps=0.0 q=0.0 size=       0KiB time=N/A bitrate=N/A speed=N/A elapsed=0:00:00.52    \nframe=    5 fps=3.5 q=63.0 size=       1KiB time=00:00:00.08 bitrate=  60.8kbits/s speed=0.0589x elapsed=0:00:01.41    \nframe=    9 fps=4.6 q=63.0 size=       1KiB time=00:00:00.15 bitrate=  33.8kbits/s speed=0.0773x elapsed=0:00:01.94    \nframe=   12 fps=4.8 q=63.0 size=       1KiB time=00:00:00.20 bitrate=  25.3kbits/s speed=0.0802x elapsed=0:00:02.49    \nframe=   16 fps=5.2 q=63.0 size=       1KiB time=00:00:00.26 bitrate=  19.0kbits/s speed=0.0869x elapsed=0:00:03.06    \nframe=   20 fps=5.5 q=63.0 size=       1KiB time=00:00:00.33 bitrate=  15.2kbits/s speed=0.0916x elapsed=0:00:03.63    \nframe=   24 fps=5.7 q=63.0 size=       1KiB time=00:00:00.38 bitrate=  13.2kbits/s speed=0.0905x elapsed=0:00:04.23    \nframe=   27 fps=5.6 q=63.0 size=       1KiB time=00:00:00.45 bitrate=  11.3kbits/s speed=0.0925x elapsed=0:00:04.86    \nframe=   31 fps=5.7 q=63.0 size=       1KiB time=00:00:00.51 bitrate=   9.8kbits/s speed=0.0953x elapsed=0:00:05.42    \nframe=   35 fps=5.9 q=63.0 size=       1KiB time=00:00:00.58 bitrate=   8.7kbits/s speed=0.0976x elapsed=0:00:05.97    \nframe=   38 fps=5.8 q=63.0 size=       1KiB time=00:00:00.63 bitrate=   8.0kbits/s speed=0.0972x elapsed=0:00:06.51    \nframe=   42 fps=6.0 q=63.0 size=       1KiB time=00:00:00.70 bitrate=   7.2kbits/s speed=0.0993x elapsed=0:00:07.05    \nframe=   46 fps=6.0 q=63.0 size=       1KiB time=00:00:00.76 bitrate=   6.6kbits/s speed=0.0999x elapsed=0:00:07.67    \nframe=   49 fps=5.9 q=56.0 size=       1KiB time=00:00:00.80 bitrate=   6.3kbits/s speed=0.0963x elapsed=0:00:08.31    \nframe=   53 fps=5.9 q=63.0 size=       1KiB time=00:00:00.88 bitrate=   5.7kbits/s speed=0.0987x elapsed=0:00:08.95    \nframe=   57 fps=6.0 q=63.0 size=       1KiB time=00:00:00.95 bitrate=   5.3kbits/s speed=0.0998x elapsed=0:00:09.51    \nframe=   60 fps=6.0 q=63.0 size=       1KiB time=00:00:01.00 bitrate=   5.1kbits/s speed=0.0995x elapsed=0:00:10.05    \nframe=   64 fps=6.0 q=63.0 size=       1KiB time=00:00:01.06 bitrate=   4.7kbits/s speed= 0.1x elapsed=0:00:10.65    \nframe=   67 fps=6.0 q=56.0 size=       1KiB time=00:00:01.11 bitrate=   4.5kbits/s speed=0.0993x elapsed=0:00:11.24    \nframe=   71 fps=6.0 q=63.0 size=       1KiB time=00:00:01.18 bitrate=   4.3kbits/s speed= 0.1x elapsed=0:00:11.83    \nframe=   74 fps=6.0 q=63.0 size=       1KiB time=00:00:01.21 bitrate=   4.2kbits/s speed=0.0983x elapsed=0:00:12.37    \nframe=   78 fps=6.0 q=63.0 size=       1KiB time=00:00:01.30 bitrate=   3.9kbits/s speed= 0.1x elapsed=0:00:12.96    \nframe=   82 fps=6.0 q=63.0 size=       1KiB time=00:00:01.36 bitrate=   3.7kbits/s speed=0.101x elapsed=0:00:13.58    \nframe=   86 fps=6.1 q=63.0 size=       1KiB time=00:00:01.41 bitrate=   3.6kbits/s speed= 0.1x elapsed=0:00:14.17    \nframe=   89 fps=6.0 q=63.0 size=       1KiB time=00:00:01.48 bitrate=   3.4kbits/s speed= 0.1x elapsed=0:00:14.83    \nframe=   93 fps=6.0 q=63.0 size=       1KiB time=00:00:01.53 bitrate=   3.3kbits/s speed=0.0997x elapsed=0:00:15.38    \nframe=   96 fps=6.0 q=63.0 size=       1KiB time=00:00:01.60 bitrate=   3.2kbits/s speed=0.0997x elapsed=0:00:16.04    \nframe=  100 fps=6.0 q=63.0 size=       1KiB time=00:00:01.66 bitrate=   3.0kbits/s speed= 0.1x elapsed=0:00:16.63    \nframe=  103 fps=6.0 q=56.0 size=       1KiB time=00:00:01.71 bitrate=   2.9kbits/s speed=0.0997x elapsed=0:00:17.21    \nframe=  108 fps=6.1 q=63.0 size=       1KiB time=00:00:01.78 bitrate=   2.8kbits/s speed= 0.1x elapsed=0:00:17.76    \nframe=  110 fps=6.0 q=63.0 size=       1KiB time=00:00:01.83 bitrate=   2.8kbits/s speed=0.0999x elapsed=0:00:18.34    \nframe=  114 fps=6.0 q=63.0 size=       1KiB time=00:00:01.90 bitrate=   2.7kbits/s speed= 0.1x elapsed=0:00:18.91    \nframe=  118 fps=6.0 q=63.0 size=       1KiB time=00:00:01.96 bitrate=   2.6kbits/s speed=0.101x elapsed=0:00:19.52    \nframe=  122 fps=6.1 q=63.0 size=       1KiB time=00:00:02.03 bitrate=   2.5kbits/s speed=0.101x elapsed=0:00:20.04    \nframe=  126 fps=6.1 q=63.0 size=       1KiB time=00:00:02.10 bitrate=   2.4kbits/s speed=0.102x elapsed=0:00:20.58    \nframe=  128 fps=6.0 q=63.0 size=       1KiB time=00:00:02.13 bitrate=   2.4kbits/s speed=0.101x elapsed=0:00:21.17    \nframe=  133 fps=6.1 q=63.0 size=     256KiB time=00:00:02.21 bitrate= 946.1kbits/s speed=0.102x elapsed=0:00:21.73    \nframe=  137 fps=6.1 q=63.0 size=     256KiB time=00:00:02.26 bitrate= 925.2kbits/s speed=0.102x elapsed=0:00:22.30    \nframe=  140 fps=6.1 q=63.0 size=     256KiB time=00:00:02.33 bitrate= 898.8kbits/s speed=0.102x elapsed=0:00:22.90    \nframe=  144 fps=6.1 q=63.0 size=     256KiB time=00:00:02.40 bitrate= 873.8kbits/s speed=0.102x elapsed=0:00:23.49    \nframe=  147 fps=6.1 q=56.0 size=     256KiB time=00:00:02.45 bitrate= 856.0kbits/s speed=0.102x elapsed=0:00:24.03    \nframe=  151 fps=6.1 q=63.0 size=     256KiB time=00:00:02.50 bitrate= 838.9kbits/s speed=0.102x elapsed=0:00:24.59    \nframe=  153 fps=6.1 q=56.0 size=     256KiB time=00:00:02.55 bitrate= 822.4kbits/s speed=0.101x elapsed=0:00:25.20    \nframe=  157 fps=6.1 q=63.0 size=     256KiB time=00:00:02.61 bitrate= 801.5kbits/s speed=0.101x elapsed=0:00:25.80    \nframe=  159 fps=6.0 q=56.0 size=     256KiB time=00:00:02.65 bitrate= 791.4kbits/s speed=0.101x elapsed=0:00:26.34    \nframe=  163 fps=6.1 q=63.0 size=     256KiB time=00:00:02.71 bitrate= 772.0kbits/s speed=0.101x elapsed=0:00:26.86    \nframe=  166 fps=6.0 q=63.0 size=     256KiB time=00:00:02.76 bitrate= 758.0kbits/s speed=0.101x elapsed=0:00:27.46    \nframe=  170 fps=6.1 q=63.0 size=     256KiB time=00:00:02.83 bitrate= 740.2kbits/s speed=0.101x elapsed=0:00:28.04    \nframe=  173 fps=6.0 q=63.0 size=     256KiB time=00:00:02.88 bitrate= 727.3kbits/s speed=0.101x elapsed=0:00:28.66    \nframe=  176 fps=6.0 q=63.0 size=     256KiB time=00:00:02.93 bitrate= 714.9kbits/s speed= 0.1x elapsed=0:00:29.21    \nframe=  180 fps=6.0 q=63.0 size=     256KiB time=00:00:03.00 bitrate= 699.1kbits/s speed=0.101x elapsed=0:00:29.83    \nframe=  184 fps=6.0 q=63.0 size=     256KiB time=00:00:03.06 bitrate= 683.9kbits/s speed=0.101x elapsed=0:00:30.45    \nframe=  188 fps=6.1 q=63.0 size=     256KiB time=00:00:03.13 bitrate= 669.3kbits/s speed=0.101x elapsed=0:00:30.99    \nframe=  192 fps=6.1 q=63.0 size=     256KiB time=00:00:03.20 bitrate= 655.4kbits/s speed=0.101x elapsed=0:00:31.61    \nframe=  194 fps=6.0 q=63.0 size=     256KiB time=00:00:03.23 bitrate= 648.6kbits/s speed= 0.1x elapsed=0:00:32.21    \nframe=  198 fps=6.0 q=63.0 size=     256KiB time=00:00:03.30 bitrate= 635.5kbits/s speed=0.101x elapsed=0:00:32.72    \nframe=  201 fps=6.0 q=56.0 size=     256KiB time=00:00:03.35 bitrate= 626.0kbits/s speed=0.101x elapsed=0:00:33.27    \nframe=  206 fps=6.1 q=63.0 size=     256KiB time=00:00:03.43 bitrate= 610.8kbits/s speed=0.101x elapsed=0:00:33.83    \nframe=  210 fps=6.1 q=63.0 size=     256KiB time=00:00:03.50 bitrate= 599.2kbits/s speed=0.102x elapsed=0:00:34.39    \nframe=  212 fps=6.1 q=63.0 size=     256KiB time=00:00:03.53 bitrate= 593.5kbits/s speed=0.101x elapsed=0:00:34.94    \nframe=  216 fps=6.1 q=63.0 size=     256KiB time=00:00:03.60 bitrate= 582.5kbits/s speed=0.101x elapsed=0:00:35.51    \nframe=  220 fps=6.1 q=63.0 size=     256KiB time=00:00:03.65 bitrate= 574.6kbits/s speed=0.101x elapsed=0:00:36.09    \nframe=  224 fps=6.1 q=63.0 size=     256KiB time=00:00:03.73 bitrate= 561.7kbits/s speed=0.102x elapsed=0:00:36.69    \nframe=  228 fps=6.1 q=63.0 size=     256KiB time=00:00:03.80 bitrate= 551.9kbits/s speed=0.102x elapsed=0:00:37.26    \nframe=  231 fps=6.1 q=56.0 size=     256KiB time=00:00:03.85 bitrate= 544.7kbits/s speed=0.102x elapsed=0:00:37.84    \nframe=  235 fps=6.1 q=63.0 size=     256KiB time=00:00:03.91 bitrate= 535.4kbits/s speed=0.102x elapsed=0:00:38.40    \nframe=  238 fps=6.1 q=63.0 size=     256KiB time=00:00:03.96 bitrate= 528.7kbits/s speed=0.102x elapsed=0:00:39.02    \nframe=  242 fps=6.1 q=63.0 size=     256KiB time=00:00:04.03 bitrate= 520.0kbits/s speed=0.102x elapsed=0:00:39.62    \nframe=  245 fps=6.1 q=63.0 size=     256KiB time=00:00:04.08 bitrate= 513.6kbits/s speed=0.102x elapsed=0:00:40.21    \nReceived > 3 system signals, hard exiting\n",
  "seconds": 41.30085110664368
}